<svg width="20" height="20" viewBox="0 0 20 20" fill="none" xmlns="http://www.w3.org/2000/svg">
<path d="M4.99992 18.3333C4.54159 18.3333 4.14909 18.17 3.82242 17.8433C3.49575 17.5167 3.3327 17.1245 3.33325 16.6667V8.33334C3.33325 7.87501 3.49659 7.48251 3.82325 7.15584C4.14992 6.82918 4.54214 6.66612 4.99992 6.66668H5.83325V5.00001C5.83325 3.84723 6.23964 2.86446 7.05242 2.05168C7.8652 1.2389 8.8477 0.832789 9.99992 0.833344C11.1527 0.833344 12.1355 1.23973 12.9483 2.05251C13.761 2.86529 14.1671 3.84779 14.1666 5.00001V6.66668H14.9999C15.4583 6.66668 15.8508 6.83001 16.1774 7.15668C16.5041 7.48334 16.6671 7.87557 16.6666 8.33334V16.6667C16.6666 17.125 16.5033 17.5175 16.1766 17.8442C15.8499 18.1708 15.4577 18.3339 14.9999 18.3333H4.99992ZM9.99992 14.1667C10.4583 14.1667 10.8508 14.0033 11.1774 13.6767C11.5041 13.35 11.6671 12.9578 11.6666 12.5C11.6666 12.0417 11.5033 11.6492 11.1766 11.3225C10.8499 10.9958 10.4577 10.8328 9.99992 10.8333C9.54159 10.8333 9.14909 10.9967 8.82242 11.3233C8.49575 11.65 8.3327 12.0422 8.33325 12.5C8.33325 12.9583 8.49659 13.3508 8.82325 13.6775C9.14992 14.0042 9.54214 14.1672 9.99992 14.1667ZM7.49992 6.66668H12.4999V5.00001C12.4999 4.30557 12.2569 3.71529 11.7708 3.22918C11.2846 2.74307 10.6944 2.50001 9.99992 2.50001C9.30548 2.50001 8.7152 2.74307 8.22909 3.22918C7.74298 3.71529 7.49992 4.30557 7.49992 5.00001V6.66668Z" fill="black"/>
</svg>
