<svg width="20" height="20" viewBox="0 0 20 20" fill="none" xmlns="http://www.w3.org/2000/svg">
<path d="M10 10.7917V3.29168C10 3.05557 10.08 2.85779 10.24 2.69834C10.4 2.5389 10.5978 2.4589 10.8333 2.45834H16.6667C16.9028 2.45834 17.1008 2.53834 17.2608 2.69834C17.4208 2.85834 17.5006 3.05612 17.5 3.29168V7.45834C17.5 7.69445 17.42 7.89251 17.26 8.05251C17.1 8.21251 16.9022 8.29223 16.6667 8.29168H12.5L10 10.7917ZM16.625 17.5C14.8333 17.5 13.0867 17.1006 11.385 16.3017C9.68333 15.5028 8.17639 14.4472 6.86417 13.135C5.55195 11.8228 4.49639 10.3158 3.6975 8.61418C2.89861 6.91251 2.49945 5.16612 2.5 3.37501C2.5 3.12501 2.58333 2.91668 2.75 2.75001C2.91667 2.58334 3.125 2.50001 3.375 2.50001H6.75C6.94445 2.50001 7.11806 2.56251 7.27083 2.68751C7.42361 2.81251 7.51389 2.97223 7.54167 3.16668L8.08333 6.08334C8.11111 6.27779 8.1075 6.45501 8.0725 6.61501C8.0375 6.77501 7.95778 6.91723 7.83333 7.04168L5.83333 9.08334C6.41667 10.0833 7.14583 11.0208 8.02083 11.8958C8.89583 12.7708 9.86111 13.5278 10.9167 14.1667L12.875 12.2083C13 12.0833 13.1633 11.9897 13.365 11.9275C13.5667 11.8653 13.7644 11.8478 13.9583 11.875L16.8333 12.4583C17.0278 12.5 17.1875 12.5939 17.3125 12.74C17.4375 12.8861 17.5 13.0561 17.5 13.25V16.625C17.5 16.875 17.4167 17.0833 17.25 17.25C17.0833 17.4167 16.875 17.5 16.625 17.5Z" fill="black"/>
</svg>
